<svg version="1.1" id="Layer_1" xmlns="http://www.w3.org/2000/svg" xmlns:xlink="http://www.w3.org/1999/xlink" x="0px" y="0px"
	 width="100%" viewBox="0 0 435 574" enable-background="new 0 0 435 574" xml:space="preserve">
<path fill="#018081" opacity="1.000000" stroke="none" 
	d="
M436.000000,191.000000 
	C436.000000,209.687561 436.000000,228.375122 435.590576,247.437790 
	C434.812042,248.317322 434.194061,248.783554 434.109955,249.331696 
	C431.409515,266.927246 426.980133,283.972046 420.305603,300.575928 
	C409.667755,327.039246 394.385162,350.341858 374.628784,370.702240 
	C362.109894,383.603821 348.124695,394.786591 332.705688,404.201141 
	C318.306702,412.992920 303.348206,420.615479 287.169983,425.266296 
	C273.658661,429.150421 259.864288,432.289154 246.006317,434.648254 
	C235.954056,436.359528 225.586151,436.887634 215.371750,436.775909 
	C206.195099,436.675598 197.043930,434.900848 187.867279,434.011475 
	C167.681686,432.055176 148.557297,425.997223 130.200470,417.880188 
	C97.713219,403.514832 70.293694,382.215698 48.101025,354.444550 
	C33.880920,336.649963 22.679289,317.068787 14.764296,295.625793 
	C9.229164,280.630188 5.429778,265.234955 2.945784,249.473419 
	C2.803277,248.569183 1.671421,247.820877 1.000004,247.000000 
	C1.000000,246.250000 1.000000,245.500000 1.332578,244.553833 
	C2.038518,243.780655 2.411879,243.203629 2.785238,242.626602 
	C2.190157,242.417740 1.595077,242.208878 0.999999,242.000000 
	C1.000000,224.979111 1.000000,207.958206 1.399350,190.570923 
	C2.544873,187.763870 3.618509,185.371521 3.986803,182.875107 
	C7.871853,156.540924 17.367188,132.255295 30.259708,109.110657 
	C39.331364,92.825233 51.268185,78.697075 63.893230,65.290619 
	C72.145157,56.527946 82.032288,49.217396 91.627960,41.829132 
	C105.003311,31.530668 119.953690,23.767292 135.461060,17.254179 
	C150.923553,10.759909 167.009567,6.226379 183.694885,3.925311 
	C186.216446,3.577560 188.569168,2.005658 191.000000,1.000000 
	C208.354233,1.000000 225.708450,1.000000 243.433441,1.398252 
	C248.566376,2.584362 253.458466,2.920869 258.065704,4.246984 
	C270.541748,7.838022 282.880249,11.903777 295.304871,15.677357 
	C305.950867,18.910744 315.585876,24.133547 325.333252,29.434799 
	C339.210114,36.981926 351.841064,46.189751 363.656342,56.394341 
	C377.394104,68.259346 389.462097,81.938019 398.988129,97.439980 
	C406.429413,109.549408 413.239532,122.137207 419.236084,135.021622 
	C427.177826,152.085632 431.819489,170.247086 434.074615,188.981689 
	C434.163635,189.721008 435.333679,190.330185 436.000000,191.000000 
M102.957314,137.458023 
	C91.997215,152.778961 84.539162,169.656250 80.425385,188.031357 
	C76.148056,207.137054 75.726120,226.400024 79.387489,245.550018 
	C82.694595,262.847168 89.348480,278.874786 98.717155,294.001892 
	C106.980583,307.344482 117.211288,318.617371 129.085724,328.561096 
	C142.128799,339.483521 156.760620,347.777466 172.939316,353.046082 
	C189.589432,358.468231 206.476837,361.225616 224.297256,360.324860 
	C246.165497,359.219513 266.697021,353.844757 285.496094,343.461243 
	C310.907684,329.425385 330.909546,309.525116 344.488556,283.357025 
	C353.172150,266.622864 358.296295,248.917267 359.796234,230.406006 
	C361.329010,211.490051 359.443542,192.700256 352.849823,174.571259 
	C347.893066,160.943146 341.957001,148.043610 333.203979,136.256699 
	C325.527191,125.919037 316.915588,116.742393 307.097015,108.556412 
	C295.354950,98.766815 282.226105,91.197876 267.958252,85.994591 
	C247.776886,78.634735 226.997223,75.359016 205.317657,77.812866 
	C193.620514,79.136841 182.312241,81.371384 171.265320,85.277344 
	C156.601807,90.462074 143.160202,97.941658 131.034088,107.581154 
	C120.457367,115.988976 110.870544,125.477081 102.957314,137.458023 
z"/>
<path fill="#000000" opacity="1.000000" stroke="none" 
	d="
M1.000004,247.468658 
	C1.671421,247.820877 2.803277,248.569183 2.945784,249.473419 
	C5.429778,265.234955 9.229164,280.630188 14.764296,295.625793 
	C22.679289,317.068787 33.880920,336.649963 48.101025,354.444550 
	C70.293694,382.215698 97.713219,403.514832 130.200470,417.880188 
	C148.557297,425.997223 167.681686,432.055176 187.867279,434.011475 
	C197.043930,434.900848 206.195099,436.675598 215.371750,436.775909 
	C225.586151,436.887634 235.954056,436.359528 246.006317,434.648254 
	C259.864288,432.289154 273.658661,429.150421 287.169983,425.266296 
	C303.348206,420.615479 318.306702,412.992920 332.705688,404.201141 
	C348.124695,394.786591 362.109894,383.603821 374.628784,370.702240 
	C394.385162,350.341858 409.667755,327.039246 420.305603,300.575928 
	C426.980133,283.972046 431.409515,266.927246 434.109955,249.331696 
	C434.194061,248.783554 434.812042,248.317322 435.590576,247.906448 
	C436.000000,356.933014 436.000000,465.865997 436.000000,575.000000 
	C307.979187,575.000000 179.958252,575.000000 51.325871,574.640259 
	C51.371479,573.872314 51.985077,573.356079 52.691998,573.071960 
	C67.916336,566.952148 76.983383,553.384399 76.952873,537.070618 
	C76.894371,505.792603 76.887718,474.514221 76.960075,443.236237 
	C76.998795,426.497772 67.244743,410.163147 47.452133,405.200378 
	C32.598221,401.475922 12.852116,408.143066 5.719366,423.450592 
	C4.602968,425.846527 2.595466,427.827271 1.000002,430.000000 
	C1.000000,369.312439 1.000000,308.624878 1.000004,247.468658 
z"/>
<path fill="#018081" opacity="1.000000" stroke="none" 
	d="
M1.000002,430.468658 
	C2.595466,427.827271 4.602968,425.846527 5.719366,423.450592 
	C12.852116,408.143066 32.598221,401.475922 47.452133,405.200378 
	C67.244743,410.163147 76.998795,426.497772 76.960075,443.236237 
	C76.887718,474.514221 76.894371,505.792603 76.952873,537.070618 
	C76.983383,553.384399 67.916336,566.952148 52.691998,573.071960 
	C51.985077,573.356079 51.371479,573.872314 50.857212,574.640259 
	C42.979099,575.000000 34.958199,575.000000 26.638784,574.658081 
	C25.734652,573.802551 25.208796,573.104248 24.511440,572.803040 
	C13.837623,568.193237 6.589089,560.397705 2.568508,549.515381 
	C2.449870,549.194275 1.540631,549.165222 0.999999,549.000000 
	C1.000000,509.645782 1.000000,470.291534 1.000002,430.468658 
z"/>
<path fill="#000000" opacity="1.000000" stroke="none" 
	d="
M436.000000,190.531342 
	C435.333679,190.330185 434.163635,189.721008 434.074615,188.981689 
	C431.819489,170.247086 427.177826,152.085632 419.236084,135.021622 
	C413.239532,122.137207 406.429413,109.549408 398.988129,97.439980 
	C389.462097,81.938019 377.394104,68.259346 363.656342,56.394341 
	C351.841064,46.189751 339.210114,36.981926 325.333252,29.434799 
	C315.585876,24.133547 305.950867,18.910744 295.304871,15.677357 
	C282.880249,11.903777 270.541748,7.838022 258.065704,4.246984 
	C253.458466,2.920869 248.566376,2.584362 243.902100,1.398252 
	C307.926636,1.000000 371.853271,1.000000 436.000000,1.000000 
	C436.000000,64.020721 436.000000,127.041702 436.000000,190.531342 
z"/>
<path fill="#000000" opacity="1.000000" stroke="none" 
	d="
M190.531342,1.000000 
	C188.569168,2.005658 186.216446,3.577560 183.694885,3.925311 
	C167.009567,6.226379 150.923553,10.759909 135.461060,17.254179 
	C119.953690,23.767292 105.003311,31.530668 91.627960,41.829132 
	C82.032288,49.217396 72.145157,56.527946 63.893230,65.290619 
	C51.268185,78.697075 39.331364,92.825233 30.259708,109.110657 
	C17.367188,132.255295 7.871853,156.540924 3.986803,182.875107 
	C3.618509,185.371521 2.544873,187.763870 1.399350,190.102264 
	C1.000000,127.072784 1.000000,64.145561 1.000000,1.000000 
	C64.020729,1.000000 127.041702,1.000000 190.531342,1.000000 
z"/>
<path fill="#000000" opacity="1.000000" stroke="none" 
	d="
M0.999999,549.468689 
	C1.540631,549.165222 2.449870,549.194275 2.568508,549.515381 
	C6.589089,560.397705 13.837623,568.193237 24.511440,572.803040 
	C25.208796,573.104248 25.734652,573.802551 26.170135,574.658081 
	C17.738842,575.000000 9.477683,575.000000 1.000000,575.000000 
	C1.000000,566.647034 1.000000,558.292236 0.999999,549.468689 
z"/>
<path fill="#000000" opacity="1.000000" stroke="none" 
	d="
M0.999999,242.333328 
	C1.595077,242.208878 2.190157,242.417740 2.785238,242.626602 
	C2.411879,243.203629 2.038518,243.780655 1.332578,244.178833 
	C1.000000,243.555557 1.000000,243.111099 0.999999,242.333328 
z"/>
<path fill="#000000" opacity="1.000000" stroke="none" 
	d="
M103.193146,137.183136 
	C110.870544,125.477081 120.457367,115.988976 131.034088,107.581154 
	C143.160202,97.941658 156.601807,90.462074 171.265320,85.277344 
	C182.312241,81.371384 193.620514,79.136841 205.317657,77.812866 
	C226.997223,75.359016 247.776886,78.634735 267.958252,85.994591 
	C282.226105,91.197876 295.354950,98.766815 307.097015,108.556412 
	C316.915588,116.742393 325.527191,125.919037 333.203979,136.256699 
	C341.957001,148.043610 347.893066,160.943146 352.849823,174.571259 
	C359.443542,192.700256 361.329010,211.490051 359.796234,230.406006 
	C358.296295,248.917267 353.172150,266.622864 344.488556,283.357025 
	C330.909546,309.525116 310.907684,329.425385 285.496094,343.461243 
	C266.697021,353.844757 246.165497,359.219513 224.297256,360.324860 
	C206.476837,361.225616 189.589432,358.468231 172.939316,353.046082 
	C156.760620,347.777466 142.128799,339.483521 129.085724,328.561096 
	C117.211288,318.617371 106.980583,307.344482 98.717155,294.001892 
	C89.348480,278.874786 82.694595,262.847168 79.387489,245.550018 
	C75.726120,226.400024 76.148056,207.137054 80.425385,188.031357 
	C84.539162,169.656250 91.997215,152.778961 103.193146,137.183136 
z"/>
</svg>