<svg version="1.1" id="Layer_1" xmlns="http://www.w3.org/2000/svg" xmlns:xlink="http://www.w3.org/1999/xlink" x="0px" y="0px"
	 width="100%" viewBox="0 0 1233 1626" enable-background="new 0 0 1233 1626" xml:space="preserve">
<path fill="#008080" opacity="1.000000" stroke="none" 
	d="
M603.000000,1.000005 
	C612.687561,1.000000 622.375122,1.000000 632.722534,1.394322 
	C650.150391,2.858740 666.957153,3.522196 683.674683,5.119461 
	C698.767029,6.561446 713.992676,7.986183 728.748901,11.266066 
	C754.947998,17.089422 781.047913,23.594606 806.781860,31.194351 
	C824.559937,36.444595 842.064514,43.107578 858.952209,50.768692 
	C882.549561,61.473629 906.147217,72.521416 928.466187,85.603783 
	C950.547119,98.546638 971.536682,113.533691 992.076111,128.868134 
	C1009.377075,141.784836 1026.162231,155.640366 1041.685791,170.623901 
	C1059.010010,187.345276 1074.935425,205.557693 1090.949097,223.583557 
	C1107.630981,242.361526 1122.038574,262.877808 1135.647705,284.006683 
	C1153.172607,311.215149 1168.643921,339.463531 1181.615723,369.114807 
	C1194.474243,398.507355 1205.851807,428.440857 1213.181885,459.700806 
	C1218.695557,483.214630 1223.627808,506.896698 1227.785645,530.684448 
	C1230.233154,544.687988 1230.607666,559.049744 1232.032837,573.238464 
	C1232.495728,577.845032 1233.333618,582.413879 1234.000000,587.000000 
	C1234.000000,610.354248 1234.000000,633.708435 1233.614380,657.669189 
	C1232.819580,659.291870 1232.147095,660.282043 1232.043579,661.328491 
	C1231.299927,668.841064 1230.880127,676.390442 1229.963745,683.880066 
	C1228.100342,699.109985 1226.943604,714.512817 1223.760254,729.475098 
	C1218.709351,753.215271 1213.086182,776.905762 1206.169189,800.160339 
	C1195.154297,837.191772 1180.596802,872.942688 1161.581421,906.638733 
	C1150.106201,926.973389 1137.631104,946.765259 1125.078735,966.465454 
	C1107.875488,993.465027 1087.030151,1017.677185 1065.245361,1040.986694 
	C1053.049194,1054.036499 1039.832886,1066.221436 1026.335449,1077.942871 
	C1011.284790,1091.013184 995.624878,1103.416382 979.815918,1115.571167 
	C954.514343,1135.024414 927.158142,1151.329224 898.824646,1165.898682 
	C884.133667,1173.452881 868.939026,1180.076538 853.748535,1186.600464 
	C821.847290,1200.301392 788.998108,1211.277222 754.895996,1217.933594 
	C729.681458,1222.855225 704.342285,1227.347290 678.888123,1230.758301 
	C662.104187,1233.007568 645.027832,1233.291382 628.062439,1233.883179 
	C618.823547,1234.205322 609.530457,1233.534302 600.283691,1232.959595 
	C581.066650,1231.764771 561.837036,1230.634521 542.665344,1228.896118 
	C530.328003,1227.777466 517.935608,1226.328857 505.833252,1223.771851 
	C486.833893,1219.757935 467.996857,1214.919556 449.201996,1210.005981 
	C416.846130,1201.547241 385.787354,1189.510376 355.586365,1175.205444 
	C320.993835,1158.820679 287.771667,1140.039429 257.228577,1116.916382 
	C238.468796,1102.713989 220.176453,1087.844238 202.305603,1072.536987 
	C191.915558,1063.637451 182.507706,1053.529419 173.139725,1043.514526 
	C162.119247,1031.732788 151.167038,1019.830627 141.015289,1007.307739 
	C129.431412,993.018250 118.064804,978.451904 107.876480,963.157959 
	C95.838631,945.087769 84.581436,926.433167 74.035385,907.448914 
	C59.211971,880.764832 47.065796,852.791992 36.944294,823.961487 
	C24.837261,789.475281 15.024889,754.384583 10.048452,718.122375 
	C7.224816,697.547119 5.356146,676.841675 2.943458,656.208130 
	C2.696008,654.091919 1.666572,652.067200 0.999998,650.000000 
	C1.000000,647.629456 1.000000,645.258850 1.389695,642.260132 
	C1.519593,637.754700 1.259798,633.877319 1.000001,630.000000 
	C1.000000,622.312439 1.000000,614.624817 1.389694,606.284668 
	C1.519592,601.754700 1.259796,597.877319 1.000000,594.000000 
	C1.000000,591.629456 1.000000,589.258850 1.378368,586.277649 
	C2.173376,580.099548 2.378464,574.506592 3.046988,568.969543 
	C4.926401,553.403320 6.691717,537.813232 9.079026,522.321472 
	C11.379744,507.391602 13.705604,492.404999 17.245268,477.738953 
	C25.413914,443.893372 35.073730,410.414917 49.824493,378.774109 
	C61.674244,353.356079 73.552147,327.818787 87.588379,303.592102 
	C100.010780,282.150909 114.567177,261.778503 129.759720,242.156219 
	C145.422821,221.926178 162.671356,202.881454 179.866165,183.897751 
	C188.155685,174.745819 197.721329,166.703323 207.056000,158.555878 
	C219.528900,147.669327 231.926544,136.626511 245.092316,126.618797 
	C270.450806,107.343018 297.152039,90.017258 325.272522,74.989777 
	C351.769043,60.830101 378.961456,48.107555 407.300171,38.094746 
	C442.638184,25.608898 478.579193,15.230410 515.810364,9.981225 
	C533.102234,7.543251 550.386353,4.956037 567.747498,3.138437 
	C578.096130,2.055001 588.588623,2.364855 599.013062,1.961417 
	C600.352417,1.909581 601.671509,1.333329 603.000000,1.000005 
M583.369263,216.999878 
	C577.185974,217.665070 570.974121,218.136002 564.825623,219.038361 
	C554.036987,220.621674 543.036682,221.550095 532.574219,224.401245 
	C512.002563,230.007248 491.494995,236.057480 471.413666,243.197357 
	C449.674225,250.926773 428.966370,261.240936 409.633759,273.903809 
	C394.689301,283.692444 379.940765,293.877991 365.854309,304.849030 
	C353.804657,314.233795 342.604248,324.756042 331.451172,335.225769 
	C325.593231,340.724792 320.399323,346.993713 315.334015,353.261261 
	C305.695801,365.187012 295.982483,377.084076 286.990448,389.493103 
	C270.733673,411.927490 257.365753,436.110291 247.185410,461.852081 
	C240.360519,479.109344 234.244370,496.733429 229.222412,514.590271 
	C225.062042,529.383545 222.501282,544.683960 220.098343,559.896545 
	C218.082870,572.656006 216.947876,585.589294 216.121811,598.490417 
	C215.504349,608.133728 215.639099,617.864990 216.083496,627.527405 
	C216.771484,642.486450 217.048462,657.564514 219.266510,672.326660 
	C221.814072,689.281738 225.908875,706.040344 230.000000,722.720337 
	C239.587601,761.809998 256.194122,798.008667 277.614105,831.876099 
	C295.057953,859.456726 315.325958,884.953003 339.564362,907.038879 
	C348.447021,915.132629 357.335999,923.236084 366.534210,930.963623 
	C385.271362,946.704895 405.771423,959.952698 427.252350,971.537170 
	C451.109863,984.403259 476.056763,994.796997 502.086731,1002.640015 
	C530.729675,1011.270264 559.976440,1016.554382 589.708679,1018.817139 
	C603.649292,1019.878052 617.761963,1019.518738 631.752197,1018.860291 
	C646.816528,1018.151184 661.852356,1016.557739 676.858093,1014.952698 
	C696.603577,1012.840759 715.713806,1007.730713 734.709045,1002.096436 
	C765.195679,993.053650 793.809631,979.821777 821.278564,963.959595 
	C847.699463,948.702454 871.723572,930.183533 893.945251,909.402039 
	C910.444092,893.972473 925.137939,876.864014 938.831116,858.831055 
	C959.088440,832.153748 975.807678,803.456909 988.602905,772.600281 
	C1001.296692,741.988159 1011.122864,710.414734 1014.949646,677.324341 
	C1017.059387,659.081238 1019.320374,640.763489 1019.712402,622.440918 
	C1020.070801,605.690369 1018.267456,588.866638 1016.908997,572.116333 
	C1016.092407,562.047363 1014.831665,551.951355 1012.846985,542.052673 
	C1008.131775,518.536438 1001.592468,495.485291 992.928406,473.102905 
	C983.067200,447.627869 970.852234,423.301788 955.879822,400.430023 
	C943.151794,380.986694 929.617065,362.096802 913.067017,345.677460 
	C898.911072,331.633453 884.946289,317.251221 869.589844,304.605957 
	C855.599854,293.085815 840.146423,283.237885 824.810852,273.481598 
	C802.299377,259.159973 778.195129,247.917908 753.046143,238.967911 
	C728.082642,230.083923 702.666077,222.906723 676.250671,220.031540 
	C657.825623,218.026077 639.351318,216.353561 620.859070,215.141815 
	C612.987488,214.626022 605.011414,215.615738 597.087891,216.020447 
	C592.821472,216.238373 588.565796,216.665939 583.369263,216.999878 
z"/>
<path fill="#FFFFFF" opacity="1.000000" stroke="none" 
	d="
M0.999998,650.468628 
	C1.666572,652.067200 2.696008,654.091919 2.943458,656.208130 
	C5.356146,676.841675 7.224816,697.547119 10.048452,718.122375 
	C15.024889,754.384583 24.837261,789.475281 36.944294,823.961487 
	C47.065796,852.791992 59.211971,880.764832 74.035385,907.448914 
	C84.581436,926.433167 95.838631,945.087769 107.876480,963.157959 
	C118.064804,978.451904 129.431412,993.018250 141.015289,1007.307739 
	C151.167038,1019.830627 162.119247,1031.732788 173.139725,1043.514526 
	C182.507706,1053.529419 191.915558,1063.637451 202.305603,1072.536987 
	C220.176453,1087.844238 238.468796,1102.713989 257.228577,1116.916382 
	C287.771667,1140.039429 320.993835,1158.820679 355.586365,1175.205444 
	C385.787354,1189.510376 416.846130,1201.547241 449.201996,1210.005981 
	C467.996857,1214.919556 486.833893,1219.757935 505.833252,1223.771851 
	C517.935608,1226.328857 530.328003,1227.777466 542.665344,1228.896118 
	C561.837036,1230.634521 581.066650,1231.764771 600.283691,1232.959595 
	C609.530457,1233.534302 618.823547,1234.205322 628.062439,1233.883179 
	C645.027832,1233.291382 662.104187,1233.007568 678.888123,1230.758301 
	C704.342285,1227.347290 729.681458,1222.855225 754.895996,1217.933594 
	C788.998108,1211.277222 821.847290,1200.301392 853.748535,1186.600464 
	C868.939026,1180.076538 884.133667,1173.452881 898.824646,1165.898682 
	C927.158142,1151.329224 954.514343,1135.024414 979.815918,1115.571167 
	C995.624878,1103.416382 1011.284790,1091.013184 1026.335449,1077.942871 
	C1039.832886,1066.221436 1053.049194,1054.036499 1065.245361,1040.986694 
	C1087.030151,1017.677185 1107.875488,993.465027 1125.078735,966.465454 
	C1137.631104,946.765259 1150.106201,926.973389 1161.581421,906.638733 
	C1180.596802,872.942688 1195.154297,837.191772 1206.169189,800.160339 
	C1213.086182,776.905762 1218.709351,753.215271 1223.760254,729.475098 
	C1226.943604,714.512817 1228.100342,699.109985 1229.963745,683.880066 
	C1230.880127,676.390442 1231.299927,668.841064 1232.043579,661.328491 
	C1232.147095,660.282043 1232.819580,659.291870 1233.614380,658.137817 
	C1234.000000,980.932251 1234.000000,1303.864502 1234.000000,1627.000000 
	C863.312439,1627.000000 492.624878,1627.000000 121.639709,1626.618652 
	C125.219482,1625.671997 129.181152,1625.440796 132.960663,1624.487427 
	C158.502701,1618.043823 179.634674,1604.739624 195.151382,1583.258911 
	C207.635269,1565.976807 214.979706,1546.762939 214.986862,1525.173706 
	C215.017624,1432.389038 214.919769,1339.604126 215.077301,1246.819702 
	C215.104233,1230.955566 211.475037,1216.083374 204.451248,1202.121826 
	C198.197906,1189.691895 189.917114,1178.746094 179.219269,1169.449341 
	C169.577133,1161.069946 158.982559,1154.584106 147.247269,1150.089233 
	C130.357697,1143.619995 112.767487,1140.768921 94.786118,1144.126465 
	C84.980682,1145.957397 75.047844,1148.184570 65.839394,1151.890259 
	C50.708374,1157.979492 37.712910,1167.407593 27.149498,1180.204956 
	C15.658863,1194.125732 7.361731,1209.400146 3.926031,1227.227905 
	C3.409707,1229.907104 1.997664,1232.413574 0.999989,1235.000000 
	C1.000000,1040.312500 1.000000,845.624878 0.999998,650.468628 
z"/>
<path fill="#008080" opacity="1.000000" stroke="none" 
	d="
M0.999989,1235.468628 
	C1.997664,1232.413574 3.409707,1229.907104 3.926031,1227.227905 
	C7.361731,1209.400146 15.658863,1194.125732 27.149498,1180.204956 
	C37.712910,1167.407593 50.708374,1157.979492 65.839394,1151.890259 
	C75.047844,1148.184570 84.980682,1145.957397 94.786118,1144.126465 
	C112.767487,1140.768921 130.357697,1143.619995 147.247269,1150.089233 
	C158.982559,1154.584106 169.577133,1161.069946 179.219269,1169.449341 
	C189.917114,1178.746094 198.197906,1189.691895 204.451248,1202.121826 
	C211.475037,1216.083374 215.104233,1230.955566 215.077301,1246.819702 
	C214.919769,1339.604126 215.017624,1432.389038 214.986862,1525.173706 
	C214.979706,1546.762939 207.635269,1565.976807 195.151382,1583.258911 
	C179.634674,1604.739624 158.502701,1618.043823 132.960663,1624.487427 
	C129.181152,1625.440796 125.219482,1625.671997 121.171051,1626.618652 
	C112.979103,1627.000000 104.958199,1627.000000 96.297607,1626.618652 
	C91.782043,1625.673096 87.816559,1625.457397 84.044983,1624.487549 
	C60.688923,1618.481689 40.657036,1606.992310 25.469103,1587.926758 
	C14.825066,1574.565186 7.026428,1559.793701 3.929255,1542.767578 
	C3.383443,1539.766724 1.997805,1536.918579 0.999999,1534.000000 
	C1.000000,1434.645752 1.000000,1335.291504 0.999989,1235.468628 
z"/>
<path fill="#FFFFFF" opacity="1.000000" stroke="none" 
	d="
M602.531372,1.000005 
	C601.671509,1.333329 600.352417,1.909581 599.013062,1.961417 
	C588.588623,2.364855 578.096130,2.055001 567.747498,3.138437 
	C550.386353,4.956037 533.102234,7.543251 515.810364,9.981225 
	C478.579193,15.230410 442.638184,25.608898 407.300171,38.094746 
	C378.961456,48.107555 351.769043,60.830101 325.272522,74.989777 
	C297.152039,90.017258 270.450806,107.343018 245.092316,126.618797 
	C231.926544,136.626511 219.528900,147.669327 207.056000,158.555878 
	C197.721329,166.703323 188.155685,174.745819 179.866165,183.897751 
	C162.671356,202.881454 145.422821,221.926178 129.759720,242.156219 
	C114.567177,261.778503 100.010780,282.150909 87.588379,303.592102 
	C73.552147,327.818787 61.674244,353.356079 49.824493,378.774109 
	C35.073730,410.414917 25.413914,443.893372 17.245268,477.738953 
	C13.705604,492.404999 11.379744,507.391602 9.079026,522.321472 
	C6.691717,537.813232 4.926401,553.403320 3.046988,568.969543 
	C2.378464,574.506592 2.173376,580.099548 1.378368,585.833496 
	C1.000000,391.071869 1.000000,196.143723 1.000000,1.000000 
	C201.354172,1.000000 401.708435,1.000000 602.531372,1.000005 
z"/>
<path fill="#FFFFFF" opacity="1.000000" stroke="none" 
	d="
M1234.000000,586.531372 
	C1233.333618,582.413879 1232.495728,577.845032 1232.032837,573.238464 
	C1230.607666,559.049744 1230.233154,544.687988 1227.785645,530.684448 
	C1223.627808,506.896698 1218.695557,483.214630 1213.181885,459.700806 
	C1205.851807,428.440857 1194.474243,398.507355 1181.615723,369.114807 
	C1168.643921,339.463531 1153.172607,311.215149 1135.647705,284.006683 
	C1122.038574,262.877808 1107.630981,242.361526 1090.949097,223.583557 
	C1074.935425,205.557693 1059.010010,187.345276 1041.685791,170.623901 
	C1026.162231,155.640366 1009.377075,141.784836 992.076111,128.868134 
	C971.536682,113.533691 950.547119,98.546638 928.466187,85.603783 
	C906.147217,72.521416 882.549561,61.473629 858.952209,50.768692 
	C842.064514,43.107578 824.559937,36.444595 806.781860,31.194351 
	C781.047913,23.594606 754.947998,17.089422 728.748901,11.266066 
	C713.992676,7.986183 698.767029,6.561446 683.674683,5.119461 
	C666.957153,3.522196 650.150391,2.858740 633.191223,1.394322 
	C833.259521,1.000000 1033.519043,1.000000 1234.000000,1.000000 
	C1234.000000,196.020844 1234.000000,391.041748 1234.000000,586.531372 
z"/>
<path fill="#FFFFFF" opacity="1.000000" stroke="none" 
	d="
M0.999999,1534.468628 
	C1.997805,1536.918579 3.383443,1539.766724 3.929255,1542.767578 
	C7.026428,1559.793701 14.825066,1574.565186 25.469103,1587.926758 
	C40.657036,1606.992310 60.688923,1618.481689 84.044983,1624.487549 
	C87.816559,1625.457397 91.782043,1625.673096 95.828949,1626.618652 
	C64.407181,1627.000000 32.814358,1627.000000 1.000000,1627.000000 
	C1.000000,1596.312744 1.000000,1565.625000 0.999999,1534.468628 
z"/>
<path fill="#FFFFFF" opacity="1.000000" stroke="none" 
	d="
M1.000000,594.460632 
	C1.259796,597.877319 1.519592,601.754700 1.389694,605.816040 
	C1.000000,602.307068 1.000000,598.614197 1.000000,594.460632 
z"/>
<path fill="#FFFFFF" opacity="1.000000" stroke="none" 
	d="
M1.000001,630.460632 
	C1.259798,633.877319 1.519593,637.754700 1.389695,641.816040 
	C1.000000,638.307068 1.000000,634.614197 1.000001,630.460632 
z"/>
<path fill="#FFFFFF" opacity="1.000000" stroke="none" 
	d="
M583.837280,216.999390 
	C588.565796,216.665939 592.821472,216.238373 597.087891,216.020447 
	C605.011414,215.615738 612.987488,214.626022 620.859070,215.141815 
	C639.351318,216.353561 657.825623,218.026077 676.250671,220.031540 
	C702.666077,222.906723 728.082642,230.083923 753.046143,238.967911 
	C778.195129,247.917908 802.299377,259.159973 824.810852,273.481598 
	C840.146423,283.237885 855.599854,293.085815 869.589844,304.605957 
	C884.946289,317.251221 898.911072,331.633453 913.067017,345.677460 
	C929.617065,362.096802 943.151794,380.986694 955.879822,400.430023 
	C970.852234,423.301788 983.067200,447.627869 992.928406,473.102905 
	C1001.592468,495.485291 1008.131775,518.536438 1012.846985,542.052673 
	C1014.831665,551.951355 1016.092407,562.047363 1016.908997,572.116333 
	C1018.267456,588.866638 1020.070801,605.690369 1019.712402,622.440918 
	C1019.320374,640.763489 1017.059387,659.081238 1014.949646,677.324341 
	C1011.122864,710.414734 1001.296692,741.988159 988.602905,772.600281 
	C975.807678,803.456909 959.088440,832.153748 938.831116,858.831055 
	C925.137939,876.864014 910.444092,893.972473 893.945251,909.402039 
	C871.723572,930.183533 847.699463,948.702454 821.278564,963.959595 
	C793.809631,979.821777 765.195679,993.053650 734.709045,1002.096436 
	C715.713806,1007.730713 696.603577,1012.840759 676.858093,1014.952698 
	C661.852356,1016.557739 646.816528,1018.151184 631.752197,1018.860291 
	C617.761963,1019.518738 603.649292,1019.878052 589.708679,1018.817139 
	C559.976440,1016.554382 530.729675,1011.270264 502.086731,1002.640015 
	C476.056763,994.796997 451.109863,984.403259 427.252350,971.537170 
	C405.771423,959.952698 385.271362,946.704895 366.534210,930.963623 
	C357.335999,923.236084 348.447021,915.132629 339.564362,907.038879 
	C315.325958,884.953003 295.057953,859.456726 277.614105,831.876099 
	C256.194122,798.008667 239.587601,761.809998 230.000000,722.720337 
	C225.908875,706.040344 221.814072,689.281738 219.266510,672.326660 
	C217.048462,657.564514 216.771484,642.486450 216.083496,627.527405 
	C215.639099,617.864990 215.504349,608.133728 216.121811,598.490417 
	C216.947876,585.589294 218.082870,572.656006 220.098343,559.896545 
	C222.501282,544.683960 225.062042,529.383545 229.222412,514.590271 
	C234.244370,496.733429 240.360519,479.109344 247.185410,461.852081 
	C257.365753,436.110291 270.733673,411.927490 286.990448,389.493103 
	C295.982483,377.084076 305.695801,365.187012 315.334015,353.261261 
	C320.399323,346.993713 325.593231,340.724792 331.451172,335.225769 
	C342.604248,324.756042 353.804657,314.233795 365.854309,304.849030 
	C379.940765,293.877991 394.689301,283.692444 409.633759,273.903809 
	C428.966370,261.240936 449.674225,250.926773 471.413666,243.197357 
	C491.494995,236.057480 512.002563,230.007248 532.574219,224.401245 
	C543.036682,221.550095 554.036987,220.621674 564.825623,219.038361 
	C570.974121,218.136002 577.185974,217.665070 583.837280,216.999390 
z"/>
</svg>